<svg xmlns="http://www.w3.org/2000/svg" width="480" height="210" viewBox="0 0 480 210" role="img">
  <rect width="480" height="210" rx="12" fill="#0c0a09"/>
  <rect x="0.5" y="0.5" width="479" height="209" rx="12" fill="none" stroke="#2a221d" />
  <text x="28" y="44" fill="#f3ede3" font-size="17" font-weight="700"
    font-family="-apple-system,Segoe UI,sans-serif">BRICKS8 <tspan fill="#FF4500">·</tspan> Building brick by brick 🧱</text>
  <text x="28" y="86" fill="#f3ede3" font-size="26" font-weight="700" font-family="-apple-system,Segoe UI,sans-serif">1047</text><text x="28" y="104" fill="#8c837a" font-size="11" font-family="-apple-system,Segoe UI,sans-serif" letter-spacing="1">COMMITS</text>
  <text x="150" y="86" fill="#f3ede3" font-size="26" font-weight="700" font-family="-apple-system,Segoe UI,sans-serif">94</text><text x="150" y="104" fill="#8c837a" font-size="11" font-family="-apple-system,Segoe UI,sans-serif" letter-spacing="1">ACTIVE DAYS</text>
  <text x="290" y="86" fill="#f3ede3" font-size="26" font-weight="700" font-family="-apple-system,Segoe UI,sans-serif">9</text><text x="290" y="104" fill="#8c837a" font-size="11" font-family="-apple-system,Segoe UI,sans-serif" letter-spacing="1">DAY STREAK</text>
  <text x="400" y="86" fill="#f3ede3" font-size="26" font-weight="700" font-family="-apple-system,Segoe UI,sans-serif">7</text><text x="400" y="104" fill="#8c837a" font-size="11" font-family="-apple-system,Segoe UI,sans-serif" letter-spacing="1">REPOS</text>
  <text x="28" y="116" fill="#8c837a" font-size="10" letter-spacing="1"
    font-family="-apple-system,Segoe UI,sans-serif">COMMITS / WEEK · 최근 12주</text>
  <rect x="28.0" y="157.0" width="29.8" height="23" rx="2" fill="#FF4500" opacity="0.59"/><rect x="63.8" y="166.0" width="29.8" height="14" rx="2" fill="#FF4500" opacity="0.51"/><rect x="99.7" y="180.0" width="29.8" height="0" rx="2" fill="#FF4500" opacity="0.35"/><rect x="135.5" y="180.0" width="29.8" height="0" rx="2" fill="#FF4500" opacity="0.35"/><rect x="171.3" y="177.0" width="29.8" height="3" rx="2" fill="#FF4500" opacity="0.39"/><rect x="207.2" y="143.0" width="29.8" height="37" rx="2" fill="#FF4500" opacity="0.75"/><rect x="243.0" y="132.0" width="29.8" height="48" rx="2" fill="#FF4500" opacity="0.87"/><rect x="278.8" y="120.0" width="29.8" height="60" rx="2" fill="#FF4500" opacity="1.00"/><rect x="314.7" y="146.0" width="29.8" height="34" rx="2" fill="#FF4500" opacity="0.72"/><rect x="350.5" y="158.0" width="29.8" height="22" rx="2" fill="#FF4500" opacity="0.59"/><rect x="386.3" y="140.0" width="29.8" height="40" rx="2" fill="#FF4500" opacity="0.78"/><rect x="422.2" y="170.0" width="29.8" height="10" rx="2" fill="#FF4500" opacity="0.46"/>
</svg>